<svg width="42" height="42" viewBox="0 0 42 42" fill="none" xmlns="http://www.w3.org/2000/svg">
<path d="M35.1081 32.7207C36.993 30.4528 38.304 27.7643 38.9301 24.8827C39.5562 22.001 39.4791 19.0109 38.7052 16.1654C37.9313 13.3198 36.4835 10.7025 34.4842 8.53483C32.4848 6.36716 29.9928 4.71293 27.219 3.71206C24.4451 2.71118 21.471 2.39312 18.5482 2.78477C15.6254 3.17642 12.84 4.26626 10.4274 5.9621C8.01493 7.65794 6.04636 9.90989 4.68824 12.5274C3.33012 15.145 2.62242 18.0512 2.62501 21.0001C2.626 25.2869 4.13667 29.4365 6.89194 32.7207L6.86569 32.743C6.95757 32.8533 7.06257 32.9478 7.15707 33.0567C7.27519 33.1919 7.40251 33.3192 7.52457 33.4504C7.89207 33.8494 8.27007 34.2327 8.66644 34.5923C8.78719 34.7026 8.91188 34.8049 9.03394 34.9099C9.45394 35.2722 9.88576 35.6161 10.3333 35.9363C10.3911 35.9757 10.4436 36.0269 10.5013 36.0676V36.0518C13.5753 38.215 17.2425 39.376 21.0013 39.376C24.7602 39.376 28.4273 38.215 31.5013 36.0518V36.0676C31.5591 36.0269 31.6103 35.9757 31.6693 35.9363C32.1156 35.6147 32.5487 35.2722 32.9687 34.9099C33.0908 34.8049 33.2154 34.7013 33.3362 34.5923C33.7326 34.2314 34.1106 33.8494 34.4781 33.4504C34.6001 33.3192 34.7261 33.1919 34.8456 33.0567C34.9388 32.9478 35.0451 32.8532 35.1369 32.7417L35.1081 32.7207ZM21 10.5001C22.1682 10.5001 23.3101 10.8465 24.2813 11.4954C25.2526 12.1444 26.0096 13.0669 26.4567 14.1461C26.9037 15.2253 27.0207 16.4129 26.7928 17.5586C26.5649 18.7043 26.0024 19.7567 25.1764 20.5827C24.3504 21.4087 23.298 21.9712 22.1523 22.1991C21.0066 22.427 19.819 22.31 18.7398 21.863C17.6606 21.4159 16.7381 20.6589 16.0891 19.6876C15.4402 18.7164 15.0938 17.5745 15.0938 16.4063C15.0938 14.8399 15.716 13.3376 16.8237 12.23C17.9313 11.1223 19.4336 10.5001 21 10.5001V10.5001ZM10.5092 32.7207C10.532 30.9973 11.2323 29.3522 12.4587 28.1413C13.6851 26.9304 15.339 26.2509 17.0625 26.2501H24.9375C26.661 26.2509 28.3149 26.9304 29.5413 28.1413C30.7677 29.3522 31.4681 30.9973 31.4908 32.7207C28.6123 35.3146 24.8748 36.7502 21 36.7502C17.1252 36.7502 13.3877 35.3146 10.5092 32.7207V32.7207Z" fill="black"/>
</svg>
